<svg id="Layer_1" data-name="Layer 1" xmlns="http://www.w3.org/2000/svg" viewBox="0 0 269.29 70.87"><defs><style>.cls-1{fill:#fff;}</style></defs><rect class="cls-1" x="140.57" y="14.07" width="1.5" height="42.62"/><rect class="cls-1" x="57.34" y="14.16" width="4.01" height="27.9"/><path class="cls-1" d="M96.82,28.07c0-7.49-5.77-14.28-15-14.28-9.54,0-14.94,7-14.94,14.4,0,7.77,6,14.24,14.73,14.24C90.68,42.43,96.82,36.09,96.82,28.07Zm-15,10.64C76,38.71,71,34.53,71,28.19c0-4.66,3.15-10.64,11-10.64A10.51,10.51,0,0,1,92.73,28,11.68,11.68,0,0,1,90,35.39,11.48,11.48,0,0,1,81.81,38.71Z"/><polygon class="cls-1" points="115.6 31.14 124.19 20.34 124.19 42.06 128.2 42.06 128.2 14.16 124.48 14.16 115.23 25.61 105.95 14.16 102.18 14.16 102.18 42.06 106.19 42.06 106.19 20.34 114.87 31.14 115.6 31.14"/><path class="cls-1" d="M21.26,52.64A3.7,3.7,0,0,1,21,54.37a2.6,2.6,0,0,1-2.45,1.22,2.78,2.78,0,0,1-2.13-.77c-.49-.48-.6-1-.6-2.18V47.36H14.46v5.28A4.68,4.68,0,0,0,15,55.16a4.14,4.14,0,0,0,3.56,1.62,4.43,4.43,0,0,0,3-1,3.82,3.82,0,0,0,1.07-3.13V47.36H21.26Z"/><polygon class="cls-1" points="33.71 54.57 27.31 47.36 26.21 47.36 26.21 56.66 27.5 56.66 27.5 49.5 33.84 56.66 35.01 56.66 35.01 47.36 33.71 47.36 33.71 54.57"/><polygon class="cls-1" points="48.1 51.18 44.94 47.36 43.66 47.36 43.66 56.66 45.02 56.66 45.02 49.42 47.97 53.02 48.22 53.02 51.14 49.42 51.14 56.66 52.51 56.66 52.51 47.36 51.24 47.36 48.1 51.18"/><rect class="cls-1" x="56.29" y="47.36" width="1.36" height="9.3"/><path class="cls-1" d="M66.08,53.26h1.83V55.2a6.39,6.39,0,0,1-2.08.41A3.56,3.56,0,0,1,62,52a3.59,3.59,0,0,1,3.69-3.59,6.87,6.87,0,0,1,3.36,1V48a8.16,8.16,0,0,0-3.33-.79,4.88,4.88,0,0,0-5.14,4.85c0,2.11,1.52,4.69,5.19,4.69A8.52,8.52,0,0,0,69.27,56V52.09H66.08Z"/><path class="cls-1" d="M76.81,52.24A2.33,2.33,0,0,0,78.4,50a2.41,2.41,0,0,0-1.49-2.29,4,4,0,0,0-1.63-.3H72.9v9.3h1.35v-4h.36c.66,0,1.12,0,2,1.17.3.4,1.62,2.43,1.94,2.88h1.62c-.66-.9-.89-1.22-1.3-1.86A7.73,7.73,0,0,0,76.81,52.24Zm-.71-1a5.13,5.13,0,0,1-1.32.13h-.53V48.49h.42a3.84,3.84,0,0,1,1.61.22A1.34,1.34,0,0,1,77,50,1.42,1.42,0,0,1,76.1,51.29Z"/><path class="cls-1" d="M85.77,47.31l-4.08,9.35h1.39l1.2-2.74h4l1.27,2.74H91l-4.24-9.35Zm-1,5.41,1.42-3.37,1.53,3.37Z"/><polygon class="cls-1" points="91.6 48.53 94.86 48.53 94.86 56.66 96.22 56.66 96.22 48.53 99.53 48.53 99.53 47.36 91.6 47.36 91.6 48.53"/><rect class="cls-1" x="102.52" y="47.36" width="1.36" height="9.3"/><path class="cls-1" d="M111.79,47.24a4.78,4.78,0,1,0-.07,9.54c3.1,0,5.19-2.11,5.19-4.79A4.82,4.82,0,0,0,111.79,47.24Zm2.78,7.19a3.92,3.92,0,0,1-2.77,1.11A3.53,3.53,0,1,1,115.52,52,3.84,3.84,0,0,1,114.57,54.43Z"/><polygon class="cls-1" points="127.02 54.57 120.62 47.36 119.52 47.36 119.52 56.66 120.8 56.66 120.8 49.5 127.15 56.66 128.31 56.66 128.31 47.36 127.02 47.36 127.02 54.57"/><path class="cls-1" d="M28.81,25.48a.57.57,0,1,0-.57-.57A.58.58,0,0,0,28.81,25.48Z"/><path class="cls-1" d="M26.79,28.92a.23.23,0,0,0,.22-.15l1-2.38.08,2.32-.38,2.94a.25.25,0,0,0,.15.27l.09,0a.24.24,0,0,0,.24-.22l.36-2.8h.49l.37,2.8a.24.24,0,0,0,.24.22l.08,0a.25.25,0,0,0,.16-.27l-.38-2.94.07-2.32,1,2.38h0l0,0h0s0,0,0,0h0l0,0h0l0,0H31l-.33,1.66a.39.39,0,0,0,.08.33A.46.46,0,0,0,31,31v.7a.2.2,0,0,0,.2.2.21.21,0,0,0,.21-.2v-.68h.3v.68a.21.21,0,0,0,.21.2.2.2,0,0,0,.2-.2V31a.36.36,0,0,0,.18-.12.39.39,0,0,0,.08-.33L32,28.92h.3l0,0h0l0,0h0s0,0,0,0h0l0,0h0l1-2.47.21,1a1.06,1.06,0,0,1,0,.5l-.95,4.13h3l-1-4.14a1,1,0,0,1,0-.49l.2-1,.81,2a.25.25,0,0,0,.23.16l.09,0a.25.25,0,0,0,.14-.32l-.91-2.23a.25.25,0,0,0-.23-.15h-1.7a.23.23,0,0,0-.22.15l-1.09,2.56H31L29.9,25.87a.23.23,0,0,0-.22-.15H27.94a.25.25,0,0,0-.23.15l-1.14,2.7a.25.25,0,0,0,.09.32A.28.28,0,0,0,26.79,28.92Z"/><path class="cls-1" d="M34.23,25.48a.57.57,0,1,0-.57-.57A.56.56,0,0,0,34.23,25.48Z"/><path class="cls-1" d="M31.53,28.31a.43.43,0,1,0,0-.85.43.43,0,1,0,0,.85Z"/><path class="cls-1" d="M48.61,27.29a20.56,20.56,0,0,0-5.34-13.08h-3c.77.71,1.85,1.95,1.85,1.95a17.56,17.56,0,0,1,4.49,11.25v.14H42c-.72-7.45-6.65-13.34-13.86-13.34-7.68,0-13.92,6.62-13.92,14.78a20.51,20.51,0,0,0,5.34,13.08h2.95c-.77-.71-1.85-2-1.85-2a17.55,17.55,0,0,1-4.5-11.25c0-.05,0-.09,0-.14h4.71c.72,7.45,6.65,13.34,13.86,13.34C42.37,42.07,48.61,35.46,48.61,27.29ZM35,40.12V36.63a7.89,7.89,0,0,1,5.08,2.14A11.44,11.44,0,0,1,35,40.12Zm0-4.21V33.73h6.53A9.06,9.06,0,0,1,38,36.57,8.68,8.68,0,0,0,35,35.91Zm5.75,2.47A8.77,8.77,0,0,0,38.92,37a10.19,10.19,0,0,0,3.53-3.28h2.63A12.38,12.38,0,0,1,40.74,38.38Zm5.89-10a13.43,13.43,0,0,1-1.12,4.45H43A8.76,8.76,0,0,0,44,28.79v-.37ZM40,27.55H37.58v-.06a8.76,8.76,0,0,0-1.06-4.08h2.39A13.25,13.25,0,0,1,40,27.55Zm-1.52-5H36a10.16,10.16,0,0,0-3.52-3.28A8.66,8.66,0,0,0,34.24,18,12.49,12.49,0,0,1,38.48,22.55Zm-9.81-6.38a11.39,11.39,0,0,1,4.9,1.39,7.81,7.81,0,0,1-4.9,2.08Zm0,4.2a8.42,8.42,0,0,0,2.89-.66,9.17,9.17,0,0,1,3.51,2.84h-6.4Zm-.88-4.21v3.49a7.87,7.87,0,0,1-5.08-2.14A11.4,11.4,0,0,1,27.79,16.16Zm0,4.22v2.17H21.26a9.25,9.25,0,0,1,3.51-2.84A8.87,8.87,0,0,0,27.79,20.38ZM22,17.9a8.52,8.52,0,0,0,1.82,1.37,10.11,10.11,0,0,0-3.53,3.28H17.7A12.45,12.45,0,0,1,22,17.9Zm-5.89,10a13.43,13.43,0,0,1,1.12-4.45h2.54a8.76,8.76,0,0,0-1.06,4.08v.37Zm3.37,0c0-.11,0-.27,0-.37a8.12,8.12,0,0,1,1.17-4.08h15a8,8,0,0,1,1.17,4.08v.06h0v.87h6.46v.37a8.08,8.08,0,0,1-1.16,4.08h-15A8.08,8.08,0,0,1,26,28.79v-.06h0v-.87Zm3.26.87h2.41v.06a8.65,8.65,0,0,0,1.07,4.08H23.87A13.25,13.25,0,0,1,22.78,28.73Zm1.52,5h2.48A10.16,10.16,0,0,0,30.3,37a9,9,0,0,0-1.76,1.31A12.41,12.41,0,0,1,24.3,33.73Zm9.81,6.38a11.39,11.39,0,0,1-4.9-1.39,7.81,7.81,0,0,1,4.9-2.08Zm0-4.2a8.91,8.91,0,0,0-2.89.66,8.92,8.92,0,0,1-3.51-2.84h6.4Z"/><path class="cls-1" d="M159.66,32.68a8.62,8.62,0,0,0,3.75-.84V27.52H160v1.29h2v2.13a6.35,6.35,0,0,1-2.31.45,4,4,0,1,1-.06-7.9,7.34,7.34,0,0,1,3.63,1.06v-1.5a8.17,8.17,0,0,0-3.6-.87,5.32,5.32,0,0,0-5.53,5.34C154.07,29.94,155.78,32.68,159.66,32.68Z"/><polygon class="cls-1" points="171.77 31.21 167.17 31.21 167.17 22.32 165.68 22.32 165.68 32.55 171.77 32.55 171.77 31.21"/><path class="cls-1" d="M177.52,32.68a5.26,5.26,0,1,0,.07-10.5,5.25,5.25,0,1,0-.07,10.5Zm.12-9.12a3.86,3.86,0,0,1,4,3.84,3.75,3.75,0,0,1-4,3.9,3.83,3.83,0,0,1-3.92-3.84A3.76,3.76,0,0,1,177.64,23.56Z"/><path class="cls-1" d="M192,29.76a2.74,2.74,0,0,0-2.45-2.63A2.24,2.24,0,0,0,191.12,25c0-1.53-1.09-2.65-3.16-2.65h-3V32.55h3.27C190.09,32.55,192,31.8,192,29.76Zm-5.55-6.15h1.26c1.33,0,1.89.45,1.89,1.48,0,.84-.57,1.64-2.12,1.64h-1ZM188,31.26h-1.54V28h1.48c1.86,0,2.55.64,2.55,1.63S189.7,31.26,188,31.26Z"/><path class="cls-1" d="M195.19,29.53h4.35l1.36,3h1.5l-4.57-10.29h-1L192.4,32.55h1.5Zm2.11-5.28,1.67,4h-3.23Z"/><polygon class="cls-1" points="209.71 31.21 205.11 31.21 205.11 22.32 203.62 22.32 203.62 32.55 209.71 32.55 209.71 31.21"/><path class="cls-1" d="M224.56,27.31c0-2.88-2.1-5-5.52-5h-3.88V32.55h3.89C222.3,32.55,224.56,30.48,224.56,27.31Zm-7.93,3.92V23.62h2.14c2.9,0,4.28,1.53,4.28,3.74,0,2.43-1.49,3.87-4.07,3.87Z"/><path class="cls-1" d="M229.19,22.26l-4.4,10.29h1.5l1.29-3h4.35l1.37,3h1.5l-4.58-10.29Zm-1.05,5.95,1.56-4,1.66,4Z"/><polygon class="cls-1" points="242.36 22.32 233.81 22.32 233.81 23.61 237.32 23.61 237.32 32.55 238.78 32.55 238.78 23.61 242.36 23.61 242.36 22.32"/><path class="cls-1" d="M246.77,22.26h-1l-4.39,10.29h1.5l1.29-3h4.35l1.36,3h1.5Zm-2.09,5.95,1.56-4,1.67,4Z"/><rect class="cls-1" x="154.52" y="38.32" width="1.47" height="10.23"/><polygon class="cls-1" points="166.44 46.25 159.59 38.32 158.37 38.32 158.37 48.55 159.78 48.55 159.78 40.67 166.58 48.55 167.85 48.55 167.85 38.32 166.44 38.32 166.44 46.25"/><path class="cls-1" d="M173.05,42.65c-1.56-.9-1.68-1.39-1.68-2s.57-1.19,1.5-1.19a3.37,3.37,0,0,1,2.4,1.07V38.9a4.34,4.34,0,0,0-2.36-.72,2.73,2.73,0,0,0-3,2.55c0,1.26.57,2.07,2.08,3,2,1.18,2.22,1.65,2.22,2.34a1.38,1.38,0,0,1-1.5,1.35,3.51,3.51,0,0,1-2.76-1.5v1.86a4.62,4.62,0,0,0,2.76.94,2.73,2.73,0,0,0,3-2.67C175.67,44.62,175.21,43.9,173.05,42.65Z"/><polygon class="cls-1" points="176.56 39.61 180.07 39.61 180.07 48.55 181.54 48.55 181.54 39.61 185.11 39.61 185.11 38.32 176.56 38.32 176.56 39.61"/><rect class="cls-1" x="186.45" y="38.32" width="1.47" height="10.23"/><polygon class="cls-1" points="189.24 39.61 192.75 39.61 192.75 48.55 194.22 48.55 194.22 39.61 197.79 39.61 197.79 38.32 189.24 38.32 189.24 39.61"/><path class="cls-1" d="M206.39,44.23c0,2.23-1,3.15-2.91,3.15s-2.94-.87-2.94-3.14V38.32h-1.47v5.92c0,3,1.57,4.44,4.41,4.44s4.38-1.66,4.38-4.45V38.32h-1.47Z"/><polygon class="cls-1" points="209.13 39.61 212.64 39.61 212.64 48.55 214.11 48.55 214.11 39.61 217.68 39.61 217.68 38.32 209.13 38.32 209.13 39.61"/><polygon class="cls-1" points="220.49 44.05 224.68 44.05 224.68 42.74 220.49 42.74 220.49 39.63 224.83 39.63 224.83 38.32 219.02 38.32 219.02 48.55 224.96 48.55 224.96 47.23 220.49 47.23 220.49 44.05"/></svg>